<?xml version="1.0" encoding="UTF-8" standalone="no"?>
<!-- Created with Inkscape (http://www.inkscape.org/) -->

<svg
   width="60mm"
   height="60mm"
   viewBox="0 0 60 60"
   version="1.1"
   id="svg5"
   inkscape:version="1.1 (c4e8f9ed74, 2021-05-24)"
   sodipodi:docname="dunstwolke.svg"
   xmlns:inkscape="http://www.inkscape.org/namespaces/inkscape"
   xmlns:sodipodi="http://sodipodi.sourceforge.net/DTD/sodipodi-0.dtd"
   xmlns="http://www.w3.org/2000/svg"
   xmlns:svg="http://www.w3.org/2000/svg">
  <sodipodi:namedview
     id="namedview7"
     pagecolor="#ffffff"
     bordercolor="#666666"
     borderopacity="1.0"
     inkscape:pageshadow="2"
     inkscape:pageopacity="0.0"
     inkscape:pagecheckerboard="0"
     inkscape:document-units="mm"
     showgrid="false"
     inkscape:zoom="2.2180981"
     inkscape:cx="194.31061"
     inkscape:cy="167.48583"
     inkscape:window-width="1920"
     inkscape:window-height="1058"
     inkscape:window-x="0"
     inkscape:window-y="0"
     inkscape:window-maximized="1"
     inkscape:current-layer="layer1" />
  <defs
     id="defs2">
    <clipPath
       id="clip1">
      <path
         d="m 102,332 h 29 v 21 h -29 z m 0,0"
         id="path25" />
    </clipPath>
    <clipPath
       id="clip2">
      <path
         d="m 139.78906,356.44141 c 0,1.5664 -1.26953,2.83203 -2.83594,2.83203 H 105.625 c -1.56641,0 -2.83594,-1.26563 -2.83594,-2.83203 v -21.33204 c 0,-1.5664 1.26953,-2.83593 2.83594,-2.83593 h 31.32812 c 1.56641,0 2.83594,1.26953 2.83594,2.83593 z m 0,0"
         id="path28" />
    </clipPath>
    <clipPath
       id="clip3">
      <path
         d="M 89,339.65625 H 99.363281 V 353 H 89 Z m 0,0"
         id="path31" />
    </clipPath>
    <clipPath
       id="clip4">
      <path
         d="m 89,313 h 11 v 20 H 89 Z m 0,0"
         id="path34" />
    </clipPath>
    <clipPath
       id="clip5">
      <path
         d="m 99.316406,309.51172 c 0,-1.56641 -1.269531,-2.83594 -2.835937,-2.83594 H 89.625 c -1.566406,0 -2.835938,1.26953 -2.835938,2.83594 v 20.63281 c 0,1.56641 1.269532,2.83594 2.835938,2.83594 h 6.855469 c 1.566406,0 2.835937,-1.26953 2.835937,-2.83594 z m 0,0"
         id="path37" />
    </clipPath>
    <clipPath
       id="clip6">
      <path
         d="m 62,452 h 29 v 21 H 62 Z m 0,0"
         id="path40" />
    </clipPath>
    <clipPath
       id="clip7">
      <path
         d="m 99.09375,476.24219 c 0,1.5664 -1.269531,2.83593 -2.835938,2.83593 H 64.929688 c -1.566407,0 -2.835938,-1.26953 -2.835938,-2.83593 v -21.33203 c 0,-1.5625 1.269531,-2.83204 2.835938,-2.83204 h 31.328124 c 1.566407,0 2.835938,1.26954 2.835938,2.83204 z m 0,0"
         id="path43" />
    </clipPath>
    <clipPath
       id="clip8">
      <path
         d="m 49,459.45312 h 9.664062 V 473 H 49 Z m 0,0"
         id="path46" />
    </clipPath>
    <clipPath
       id="clip9">
      <path
         d="m 49,433 h 10 v 20 H 49 Z m 0,0"
         id="path49" />
    </clipPath>
    <clipPath
       id="clip10">
      <path
         d="m 58.621094,429.3125 c 0,-1.56641 -1.269532,-2.83594 -2.835938,-2.83594 h -6.855468 c -1.566407,0 -2.835938,1.26953 -2.835938,2.83594 v 20.63672 c 0,1.5625 1.269531,2.83203 2.835938,2.83203 h 6.855468 c 1.566406,0 2.835938,-1.26953 2.835938,-2.83203 z m 0,0"
         id="path52" />
    </clipPath>
    <clipPath
       id="clip11">
      <path
         d="m 268,452 h 29 v 21 h -29 z m 0,0"
         id="path55" />
    </clipPath>
    <clipPath
       id="clip12">
      <path
         d="m 305.79297,476.24219 c 0,1.5664 -1.26953,2.83593 -2.83203,2.83593 h -31.33203 c -1.56641,0 -2.83594,-1.26953 -2.83594,-2.83593 v -21.33203 c 0,-1.5625 1.26953,-2.83204 2.83594,-2.83204 h 31.33203 c 1.5625,0 2.83203,1.26954 2.83203,2.83204 z m 0,0"
         id="path58" />
    </clipPath>
    <clipPath
       id="clip13">
      <path
         d="m 255,459.45312 h 10.36719 V 473 H 255 Z m 0,0"
         id="path61" />
    </clipPath>
    <clipPath
       id="clip14">
      <path
         d="m 255,433 h 11 v 20 h -11 z m 0,0"
         id="path64" />
    </clipPath>
    <clipPath
       id="clip15">
      <path
         d="m 265.32031,429.3125 c 0,-1.56641 -1.26953,-2.83594 -2.83203,-2.83594 h -6.85937 c -1.56641,0 -2.83204,1.26953 -2.83204,2.83594 v 20.63672 c 0,1.5625 1.26563,2.83203 2.83204,2.83203 h 6.85937 c 1.5625,0 2.83203,-1.26953 2.83203,-2.83203 z m 0,0"
         id="path67" />
    </clipPath>
    <clipPath
       id="clip16">
      <path
         d="m 62,545 h 29 v 21 H 62 Z m 0,0"
         id="path70" />
    </clipPath>
    <clipPath
       id="clip17">
      <path
         d="m 99.09375,569.72266 c 0,1.5625 -1.269531,2.83593 -2.835938,2.83593 H 64.929688 c -1.566407,0 -2.835938,-1.27343 -2.835938,-2.83593 v -21.33204 c 0,-1.5664 1.269531,-2.83203 2.835938,-2.83203 h 31.328124 c 1.566407,0 2.835938,1.26563 2.835938,2.83203 z m 0,0"
         id="path73" />
    </clipPath>
    <clipPath
       id="clip18">
      <path
         d="m 49,552.9375 h 9.664062 V 566 H 49 Z m 0,0"
         id="path76" />
    </clipPath>
    <clipPath
       id="clip19">
      <path
         d="m 49,526 h 10 v 21 H 49 Z m 0,0"
         id="path79" />
    </clipPath>
    <clipPath
       id="clip20">
      <path
         d="m 58.621094,522.78906 c 0,-1.5625 -1.269532,-2.83203 -2.835938,-2.83203 h -6.855468 c -1.566407,0 -2.835938,1.26953 -2.835938,2.83203 v 20.64063 c 0,1.5625 1.269531,2.83203 2.835938,2.83203 h 6.855468 c 1.566406,0 2.835938,-1.26953 2.835938,-2.83203 z m 0,0"
         id="path82" />
    </clipPath>
    <clipPath
       id="clip21">
      <path
         d="m 61,233 h 29 v 21 H 61 Z m 0,0"
         id="path85" />
    </clipPath>
    <clipPath
       id="clip22">
      <path
         d="m 98.8125,257.26172 c 0,1.5664 -1.269531,2.83594 -2.832031,2.83594 H 64.648438 c -1.566407,0 -2.835938,-1.26954 -2.835938,-2.83594 v -21.33203 c 0,-1.5625 1.269531,-2.83203 2.835938,-2.83203 h 31.332031 c 1.5625,0 2.832031,1.26953 2.832031,2.83203 z m 0,0"
         id="path88" />
    </clipPath>
    <clipPath
       id="clip23">
      <path
         d="M 48,239.05859 H 58.386719 V 254 H 48 Z m 0,0"
         id="path91" />
    </clipPath>
    <clipPath
       id="clip24">
      <path
         d="m 48,214 h 11 v 20 H 48 Z m 0,0"
         id="path94" />
    </clipPath>
    <clipPath
       id="clip25">
      <path
         d="m 58.339844,210.33203 c 0,-1.56641 -1.269532,-2.83594 -2.832032,-2.83594 h -6.859374 c -1.5625,0 -2.832032,1.26953 -2.832032,2.83594 v 20.63672 c 0,1.5625 1.269532,2.83203 2.832032,2.83203 h 6.859374 c 1.5625,0 2.832032,-1.26953 2.832032,-2.83203 z m 0,0"
         id="path97" />
    </clipPath>
  </defs>
  <g
     inkscape:label="Ebene 1"
     inkscape:groupmode="layer"
     id="layer1">
    <g
       id="g1441"
       transform="translate(-72.949621,-60.219803)">
      <path
         style="fill:#211e1e;fill-opacity:1;fill-rule:nonzero;stroke:none;stroke-width:0.352778"
         d="m 101.41311,97.272604 c 0,0.552591 -0.44786,1.000453 -1.00046,1.000453 H 89.360787 c -0.552593,0 -1.000456,-0.447862 -1.000456,-1.000453 v -7.525467 c 0,-0.551215 0.447863,-0.99908 1.000456,-0.99908 h 11.051863 c 0.5526,0 1.00046,0.447865 1.00046,0.99908 z m 0,0"
         id="path172" />
      <path
         style="fill:#211e1e;fill-opacity:1;fill-rule:nonzero;stroke:none;stroke-width:0.352778"
         d="m 96.064943,100.21885 h -2.356446 v -4.124471 h 2.356446 z m 0,0"
         id="path174" />
      <path
         style="fill:#211e1e;fill-opacity:1;fill-rule:nonzero;stroke:none;stroke-width:0.352778"
         d="m 98.421388,99.691061 h -7.070714 v 1.032149 h 7.070714 z m 0,0"
         id="path176" />
      <g
         clip-path="url(#clip6)"
         clip-rule="nonzero"
         id="g182"
         transform="matrix(0.35277778,0,0,0.35277778,66.455036,-70.735059)">
        <g
           clip-path="url(#clip7)"
           clip-rule="nonzero"
           id="g180">
          <path
             style="fill:#f58511;fill-opacity:1;fill-rule:nonzero;stroke:none"
             d="m 90.070312,472.26953 h -29.53125 v -22.93359 h 29.53125 z m 0,0"
             id="path178" />
        </g>
      </g>
      <path
         style="fill:#211e1e;fill-opacity:1;fill-rule:nonzero;stroke:none;stroke-width:0.352778"
         d="M 87.150414,97.096215 H 76.692482 v -5.745043 h 10.457932 z m 0,0"
         id="path184" />
      <path
         style="fill:#211e1e;fill-opacity:1;fill-rule:nonzero;stroke:none;stroke-width:0.352778"
         d="m 79.048927,97.670854 h -1.030772 v -6.89708 h 1.030772 z m 0,0"
         id="path186" />
      <path
         style="fill:#211e1e;fill-opacity:1;fill-rule:nonzero;stroke:none;stroke-width:0.352778"
         d="M 82.437523,97.670854 H 81.40675 v -6.89708 h 1.030773 z m 0,0"
         id="path188" />
      <path
         style="fill:#211e1e;fill-opacity:1;fill-rule:nonzero;stroke:none;stroke-width:0.352778"
         d="m 85.824741,97.670854 h -1.030773 v -6.89708 h 1.030773 z m 0,0"
         id="path190" />
      <path
         style="fill:#211e1e;fill-opacity:1;fill-rule:nonzero;stroke:none;stroke-width:0.352778"
         d="m 87.135255,87.997028 c 0,0.551215 -0.447862,0.999077 -1.000456,0.999077 h -2.418456 c -0.552594,0 -1.000456,-0.447862 -1.000456,-0.999077 v -7.280176 c 0,-0.552595 0.447862,-1.000457 1.000456,-1.000457 h 2.418456 c 0.552594,0 1.000456,0.447862 1.000456,1.000457 z m 0,0"
         id="path192" />
      <g
         clip-path="url(#clip8)"
         clip-rule="nonzero"
         id="g196"
         transform="matrix(0.35277778,0,0,0.35277778,66.455036,-70.735059)">
        <path
           style="fill:#f58511;fill-opacity:1;fill-rule:nonzero;stroke:none"
           d="M 60.714844,472.26953 H 49.082031 v -16.14062 h 11.632813 z m 0,0"
           id="path194" />
      </g>
      <g
         clip-path="url(#clip9)"
         clip-rule="nonzero"
         id="g202"
         transform="matrix(0.35277778,0,0,0.35277778,66.455036,-70.735059)">
        <g
           clip-path="url(#clip10)"
           clip-rule="nonzero"
           id="g200">
          <path
             style="fill:#f58511;fill-opacity:1;fill-rule:nonzero;stroke:none"
             d="M 60.539062,455.77344 H 49.082031 v -22.61719 h 11.457031 z m 0,0"
             id="path198" />
        </g>
      </g>
      <path
         style="fill:none;stroke:#211e1e;stroke-width:0.352778;stroke-linecap:butt;stroke-linejoin:miter;stroke-miterlimit:4;stroke-opacity:1"
         d="m 101.41311,97.272607 c 0,0.552591 -0.44786,1.000457 -1.00046,1.000457 H 89.360787 c -0.552593,0 -1.000456,-0.447866 -1.000456,-1.000457 v -7.525466 c 0,-0.551215 0.447863,-0.999077 1.000456,-0.999077 h 11.051863 c 0.5526,0 1.00046,0.447862 1.00046,0.999077 z m 0,0"
         id="path204" />
      <path
         style="fill:none;stroke:#211e1e;stroke-width:0.352778;stroke-linecap:butt;stroke-linejoin:miter;stroke-miterlimit:4;stroke-opacity:1"
         d="M 87.150414,97.096218 H 76.692482 V 91.3498 h 10.457932 z m 0,0"
         id="path206" />
      <path
         style="fill:none;stroke:#211e1e;stroke-width:0.352778;stroke-linecap:butt;stroke-linejoin:miter;stroke-miterlimit:4;stroke-opacity:1"
         d="m 87.135255,87.997032 c 0,0.551215 -0.447862,0.999077 -1.000456,0.999077 h -2.418456 c -0.552594,0 -1.000456,-0.447862 -1.000456,-0.999077 v -7.280177 c 0,-0.552594 0.447862,-1.000456 1.000456,-1.000456 h 2.418456 c 0.552594,0 1.000456,0.447862 1.000456,1.000456 z m 0,0"
         id="path208" />
      <path
         style="fill:#f58511;fill-opacity:1;fill-rule:nonzero;stroke:none;stroke-width:0.352778"
         d="m 92.006621,82.054927 c 0,-0.78135 -0.369315,-1.171331 -1.109321,-1.171331 h -1.668804 v 5.713345 h 1.648133 c 0.752409,0 1.129992,-0.391364 1.129992,-1.172711 z m -3.602193,5.386751 V 80.038855 H 90.8973 c 1.295355,0 1.943034,0.672483 1.943034,2.016072 v 3.369303 c 0,1.344965 -0.661459,2.017448 -1.985754,2.017448 z m 0,0"
         id="path210" />
      <path
         style="fill:#f58511;fill-opacity:1;fill-rule:nonzero;stroke:none;stroke-width:0.352778"
         d="M 97.234897,87.441678 V 86.78711 c -0.09922,0.246669 -0.232888,0.417544 -0.402387,0.512631 -0.168121,0.09508 -0.407899,0.141937 -0.717958,0.141937 h -1.098296 c -0.817177,0 -1.225076,-0.552595 -1.225076,-1.65778 V 82.02323 h 0.781347 v 3.71795 c 0,0.591178 0.214974,0.887455 0.644922,0.887455 h 1.245747 c 0.27423,0 0.468533,-0.07442 0.581532,-0.221862 0.111621,-0.147451 0.168121,-0.373451 0.168121,-0.676617 V 82.02323 h 0.792372 v 5.418448 z m 0,0"
         id="path212" />
      <path
         style="fill:#f58511;fill-opacity:1;fill-rule:nonzero;stroke:none;stroke-width:0.352778"
         d="m 102.54723,87.441678 v -3.706922 c 0,-0.591178 -0.21221,-0.887458 -0.63389,-0.887458 h -1.34083 c -0.27561,0 -0.46716,0.07304 -0.576024,0.216351 -0.108865,0.144696 -0.163987,0.372072 -0.163987,0.682132 v 3.695897 H 99.040128 V 82.02323 h 0.760677 v 0.665593 c 0.09922,-0.246669 0.234265,-0.418924 0.406525,-0.516763 0.17225,-0.09922 0.41065,-0.14883 0.71244,-0.14883 h 1.19338 c 0.81029,0 1.21543,0.553974 1.21543,1.65916 v 3.759288 z m 0,0"
         id="path214" />
      <path
         style="fill:#f58511;fill-opacity:1;fill-rule:nonzero;stroke:none;stroke-width:0.352778"
         d="m 104.31112,87.441678 v -0.813043 h 2.72439 c 0.44372,0 0.66559,-0.208083 0.66559,-0.622872 v -0.38034 c 0,-0.198438 -0.0606,-0.347264 -0.17915,-0.449241 -0.11989,-0.101974 -0.28249,-0.152961 -0.48644,-0.152961 h -1.37253 c -0.47267,0 -0.83647,-0.09095 -1.09278,-0.274229 -0.2577,-0.183278 -0.38586,-0.514007 -0.38586,-0.993567 v -0.242534 c 0,-0.288012 0.0317,-0.527788 0.0951,-0.717959 0.0634,-0.190169 0.15985,-0.34313 0.29077,-0.458887 0.12953,-0.117133 0.2949,-0.198437 0.49609,-0.24391 0.19982,-0.04548 0.43822,-0.06891 0.71244,-0.06891 h 2.42949 v 0.824068 h -2.64033 c -0.20394,0 -0.36104,0.05375 -0.46991,0.158475 -0.10886,0.106108 -0.16398,0.271473 -0.16398,0.496093 v 0.1695 c 0,0.210841 0.0593,0.380336 0.17914,0.507118 0.11989,0.126777 0.30317,0.188792 0.54984,0.188792 h 1.40422 c 0.42995,0 0.76894,0.08819 1.01975,0.264584 0.24942,0.176388 0.37482,0.486445 0.37482,0.930172 v 0.348647 c 0,0.514008 -0.10748,0.8971 -0.32246,1.150659 -0.21497,0.253559 -0.57602,0.38034 -1.08314,0.38034 z m 0,0"
         id="path216" />
      <path
         style="fill:#f58511;fill-opacity:1;fill-rule:nonzero;stroke:none;stroke-width:0.352778"
         d="m 110.85956,87.441678 c -1.00734,0 -1.51033,-0.577398 -1.51033,-1.732195 v -5.534202 h 0.80202 v 1.847949 h 1.36288 v 0.69729 h -1.36288 v 3.02066 c 0,0.633896 0.26045,0.950845 0.78135,0.950845 h 0.55948 v 0.749653 z m 0,0"
         id="path218" />
      <path
         style="fill:#f58511;fill-opacity:1;fill-rule:nonzero;stroke:none;stroke-width:0.352778"
         d="m 106.75714,95.871137 -1.11897,-4.225064 -1.11896,4.225064 h -0.76068 l -1.55305,-5.418444 h 0.82407 l 1.14101,4.2981 1.12999,-4.2981 h 0.73863 l 1.14102,4.2981 1.14101,-4.2981 h 0.79238 l -1.55305,5.418444 z m 0,0"
         id="path220" />
      <path
         style="fill:#f58511;fill-opacity:1;fill-rule:nonzero;stroke:none;stroke-width:0.352778"
         d="m 113.09474,92.153191 c 0,-0.281121 -0.0524,-0.498849 -0.15848,-0.649058 -0.10473,-0.151582 -0.28111,-0.227376 -0.52778,-0.227376 h -1.32017 c -0.45061,0 -0.67523,0.249425 -0.67523,0.749653 v 2.153874 c 0,0.275608 0.0496,0.490583 0.15296,0.644924 0.10198,0.15434 0.27561,0.232886 0.52227,0.232886 h 1.32017 c 0.4575,0 0.68626,-0.2508 0.68626,-0.751029 z m -1.72117,3.717946 c -0.35278,0 -0.64079,-0.03168 -0.86679,-0.09646 -0.22462,-0.06201 -0.40376,-0.163985 -0.53743,-0.305922 -0.13367,-0.140561 -0.226,-0.327974 -0.27561,-0.564998 -0.0482,-0.235645 -0.073,-0.526408 -0.073,-0.87092 V 92.28962 c 0,-0.358291 0.0275,-0.657323 0.0841,-0.897103 0.0565,-0.239779 0.15296,-0.427193 0.29076,-0.564995 0.13643,-0.137805 0.31833,-0.234269 0.54432,-0.290766 0.22463,-0.0565 0.50299,-0.08406 0.83372,-0.08406 h 0.76067 c 0.34452,0 0.63115,0.03168 0.8599,0.09508 0.22876,0.06339 0.40928,0.166741 0.53882,0.311436 0.13091,0.144695 0.22186,0.333484 0.2756,0.564995 0.0524,0.232889 0.0786,0.520897 0.0786,0.865409 v 1.743217 c 0,0.620119 -0.10335,1.080381 -0.31144,1.383552 -0.20808,0.303166 -0.58704,0.454751 -1.1355,0.454751 z m 0,0"
         id="path222" />
      <path
         style="fill:#f58511;fill-opacity:1;fill-rule:nonzero;stroke:none;stroke-width:0.352778"
         d="m 114.86965,88.466939 h 0.79237 v 7.404198 h -0.79237 z m 0,0"
         id="path224" />
      <path
         style="fill:#f58511;fill-opacity:1;fill-rule:nonzero;stroke:none;stroke-width:0.352778"
         d="M 119.99182,95.871137 V 94.46554 c 0,-0.210841 -0.0179,-0.384475 -0.0524,-0.522277 -0.0358,-0.137805 -0.0896,-0.245293 -0.16398,-0.322463 -0.0744,-0.07717 -0.16399,-0.129533 -0.26872,-0.158472 -0.10611,-0.02755 -0.23289,-0.04134 -0.38034,-0.04134 h -1.62746 v 2.450151 h -0.79237 v -7.404198 h 0.79237 v 4.340821 l 2.41845,-2.355067 h 0.98255 l -2.52319,2.344042 h 0.94947 c 0.25356,0 0.47267,0.03858 0.65457,0.117133 0.18327,0.07717 0.33486,0.183279 0.45475,0.31695 0.11989,0.132292 0.20808,0.289387 0.26458,0.469911 0.0551,0.179144 0.0841,0.370691 0.0841,0.574639 v 1.595769 z m 0,0"
         id="path226" />
      <path
         style="fill:#f58511;fill-opacity:1;fill-rule:nonzero;stroke:none;stroke-width:0.352778"
         d="m 125.0506,92.132518 c 0,-0.606336 -0.27423,-0.909503 -0.82407,-0.909503 h -0.97152 c -0.54156,0 -0.81304,0.303167 -0.81304,0.909503 v 0.664217 h 2.60863 z m -1.79559,3.738619 c -1.05557,0 -1.58336,-0.56775 -1.58336,-1.700498 v -2.017448 c 0,-1.134127 0.52779,-1.700498 1.58336,-1.700498 h 0.96187 c 1.06247,0 1.5944,0.566371 1.5944,1.700498 v 1.340831 h -3.36931 v 0.654568 c 0,0.606337 0.27148,0.909504 0.81304,0.909504 h 2.40882 v 0.813043 z m 0,0"
         id="path228" />
      <path
         style="fill:none;stroke:#f58511;stroke-width:0.352778;stroke-linecap:butt;stroke-linejoin:miter;stroke-miterlimit:4;stroke-opacity:1"
         d="M 127.87558,97.767322 H 102.39427"
         id="path230" />
      <path
         style="fill:#f58511;fill-opacity:1;fill-rule:nonzero;stroke:none;stroke-width:0.352778"
         d="m 129.20676,97.767318 c 0,0.735873 -0.59531,1.332562 -1.33118,1.332562 -0.7345,0 -1.33119,-0.596689 -1.33119,-1.332562 0,-0.734494 0.59669,-1.331186 1.33119,-1.331186 0.73587,0 1.33118,0.596692 1.33118,1.331186"
         id="path232" />
    </g>
  </g>
</svg>
