<svg xmlns="http://www.w3.org/2000/svg" width="48" height="48" version="1"><rect style="opacity:.2" width="40" height="40" x="4" y="5" rx="4" ry="4"/><rect style="fill:#4caf50" width="40" height="40" x="4" y="4" rx="4" ry="4"/><path style="opacity:.2" d="M20 4h8v19h-8z"/><path style="opacity:.2;fill:#fff" d="M8 4C5.784 4 4 5.784 4 8v1c0-2.216 1.784-4 4-4h32c2.216 0 4 1.784 4 4V8c0-2.216-1.784-4-4-4H8z"/><path style="fill:#fff" d="M22 18h2v2h-2z"/><path style="fill:#4b4b4b" d="M24 18c3 0 3 4 4 4v5c0 .554-.446 1-1 1h-6c-.554 0-1-.446-1-1v-5c1 0 1-4 4-4z"/><path style="fill:#fff" d="M24 16h2v2h-2zm-2-2h2v2h-2zm2-2h2v2h-2zm-2-2h2v2h-2zm2-2h2v2h-2zm-2-2h2v2h-2zm2-2h2v2h-2z"/><path style="opacity:.2" d="M23.734 24A3.72 3.72 0 0 0 20 27.719v7.562A3.72 3.72 0 0 0 23.734 39h.532A3.72 3.72 0 0 0 28 35.281V27.72A3.72 3.72 0 0 0 24.266 24zM24 32c1.657 0 3 1.345 3 3.002A2.998 2.998 0 0 1 24 38c-1.657 0-3-1.341-3-2.998A3.002 3.002 0 0 1 24 32z"/><path style="fill:#fff" d="M23.734 23A3.72 3.72 0 0 0 20 26.719v7.562A3.72 3.72 0 0 0 23.734 38h.532A3.72 3.72 0 0 0 28 34.281V26.72A3.72 3.72 0 0 0 24.266 23h-.532zM24 31c1.657 0 3 1.345 3 3.002A2.998 2.998 0 0 1 24 37c-1.657 0-3-1.341-3-2.998A3.002 3.002 0 0 1 24 31z"/><path style="fill:#909090" d="M23.984 20A1 .995 0 0 0 23 21.01v3.98a1 .995 0 1 0 2 0v-3.98A1 .995 0 0 0 23.984 20z"/></svg>