<svg xmlns="http://www.w3.org/2000/svg" width="48" height="48" version="1"><path style="opacity:.2" d="M12 5h24c1.657 0 3 1.352 3 3.019V41.98A3.01 3.01 0 0 1 36 45H12a3.01 3.01 0 0 1-3-3.019V8.02A3.01 3.01 0 0 1 12 5zm0 0"/><path style="fill:#e4e4e4" d="M12 4h24c1.657 0 3 1.352 3 3.019V40.98A3.01 3.01 0 0 1 36 44H12a3.01 3.01 0 0 1-3-3.019V7.02A3.01 3.01 0 0 1 12 4zm0 0"/><path style="opacity:.1" d="M16 19a3 3 0 1 0-.001 5.999A3 3 0 0 0 16 19zm8 0a3 3 0 1 0-.001 5.999A3 3 0 0 0 24 19zm8 0a3 3 0 1 0-.001 5.999A3 3 0 0 0 32 19zm-16 8a3 3 0 1 0-.001 5.999A3 3 0 0 0 16 27zm8 0a3 3 0 1 0-.001 5.999A3 3 0 0 0 24 27zm8 0c-1.657 0-3 1.219-3 2.723v8.554C29 39.781 30.343 41 32 41s3-1.219 3-2.723v-8.554C35 28.219 33.657 27 32 27zm-16 8a3 3 0 1 0-.001 5.999A3 3 0 0 0 16 35zm8 0a3 3 0 1 0-.001 5.999A3 3 0 0 0 24 35z"/><path style="fill:#3faf7f" d="M14.466 14h19.068c.81 0 1.466-.67 1.466-1.5v-3c0-.83-.656-1.5-1.466-1.5H14.466C13.656 8 13 8.67 13 9.5v3c0 .83.656 1.5 1.466 1.5zm0 0"/><circle style="fill:#4f4f4f" cx="24" cy="37" r="3"/><path style="fill:#ff7800" d="M32 26c1.657 0 3 1.218 3 2.722v8.556C35 38.782 33.657 40 32 40s-3-1.218-3-2.722v-8.556C29 27.218 30.343 26 32 26zm0 0"/><path style="fill:#fff;opacity:.2" d="M12 4a3.01 3.01 0 0 0-3 3.02v1A3.01 3.01 0 0 1 12 5h24c1.657 0 3 1.352 3 3.02v-1A3.01 3.01 0 0 0 36 4H12z"/><path style="opacity:.2" d="M14.465 8C13.655 8 13 8.67 13 9.5v1c0-.83.655-1.5 1.465-1.5h19.07c.81 0 1.465.67 1.465 1.5v-1c0-.83-.655-1.5-1.465-1.5h-19.07z"/><circle style="fill:#858585" cx="24" cy="21" r="3"/><circle style="fill:#858585" cx="16" cy="21" r="3"/><circle style="fill:#858585" cx="32" cy="21" r="3"/><circle style="fill:#4f4f4f" cx="24" cy="29" r="3"/><circle style="fill:#4f4f4f" cx="16" cy="29" r="3"/><circle style="fill:#4f4f4f" cx="16" cy="37" r="3"/></svg>