<svg xmlns="http://www.w3.org/2000/svg" width="48" height="48" version="1"><path style="opacity:.2" d="M7 5C5.338 5 4 6.338 4 8v34c0 1.662 1.338 3 3 3h14c1.662 0 3-1.338 3-3 0 1.662 1.338 3 3 3h14c1.662 0 3-1.338 3-3V8c0-1.662-1.338-3-3-3H27c-1.662 0-3 1.338-3 3 0-1.662-1.338-3-3-3H7z"/><rect style="fill:#ffe658" width="20" height="40" x="24" y="4" rx="3" ry="3"/><rect style="fill:#fff689" width="20" height="40" x="4" y="4" rx="3" ry="3"/><path style="opacity:.1" d="m13.887 17.217-.871.78.02 2.068L7 19.885l.922 1.246h5.121l.014 2.059h-2.809l-1.193-.57.05 5.868 1.307-.673v-.78h2.674l.016 1.996-5.975-.049L8.74 30.62l.692-.597h3.677l.01 1.377c0 .494.461.986.461.986l1.28-.936s-.614-.385-.614-.83l-.016-.597h6.57l-1.806-1.832-.869.882-3.922-.03-.053-2.007h1.985l.545.858.949-.963-.385-.442v-2.935l.844-.518-2.022-1.092.012 1.247h-2.031l-.041-2.06h5.693l-1.804-1.83-.872.884-3.046-.09zm19.5.338c0 1.95-.039 3.781-.309 5.49L27 23.018l.662 1.025h5.225c-.655 2.924-2.164 5.456-5.657 7.545l.233 1.424c3.722-1.767 6.1-4.524 6.855-8.969h6.616L38.6 21.709l-1.026 1.357-3.117-.013c.08-.73.121-1.503.121-2.32l1.16-.264zm3.045 1.69-.66.33c.69.636 1.622 1.153 1.654 2.118l1.324-.994c-.532-.785-1.446-1.095-2.318-1.455zm-26.02 4.595h2.649l.007 1.039h-2.656zm3.652 0h2.022l.01 1.039h-2.004zm20.58.799c0 4.516 5.065 8.406 5.065 8.406L41 30.992s-5.627-2.712-5.627-6.19zm-24.232.888h2.662l.006.858h-2.668zm3.697 0h1.993l.01.858h-1.98z"/><path style="fill:#c58c00" d="m13.887 16.217-.871.78.02 2.068L7 18.885l.922 1.246h5.121l.014 2.058h-2.808l-1.194-.57.051 5.87 1.307-.675v-.779h2.673l.016 1.996-5.975-.049L8.74 29.62l.692-.598h3.677l.01 1.377c0 .495.461.987.461.987l1.28-.936s-.614-.385-.614-.83l-.016-.598h6.57l-1.806-1.832-.869.883-3.922-.031-.053-2.006h1.985l.545.858.949-.963-.385-.442v-2.935l.844-.518-2.022-1.092.012 1.246h-2.031l-.041-2.058h5.693l-1.804-1.83-.872.883-3.046-.09zm-3.474 6.623h2.648l.007 1.039h-2.655zm3.651 0h2.022l.01 1.039h-2.004zm-3.651 1.687h2.661l.006.858h-2.667zm3.696 0h1.992l.01.858h-1.978zm19.278-7.972c0 1.95-.039 3.781-.309 5.49L27 22.018l.662 1.025h5.225c-.655 2.924-2.164 5.456-5.657 7.545l.233 1.424c3.722-1.767 6.1-4.524 6.855-8.969h6.616L38.6 20.709l-1.026 1.357-3.117-.013c.08-.73.121-1.503.121-2.32l1.16-.264-2.351-2.914zm3.045 1.69-.66.33c.69.636 1.622 1.152 1.654 2.118l1.324-.994c-.532-.785-1.446-1.095-2.318-1.455zm-1.787 5.394c0 4.516 5.064 8.406 5.064 8.406L41 29.992s-5.627-2.712-5.627-6.19l-.728-.163z"/><path style="fill:#fff;opacity:.2" d="M7 4C5.338 4 4 5.338 4 7v1c0-1.662 1.338-3 3-3h14c1.662 0 3 1.338 3 3 0-1.662 1.338-3 3-3h14c1.662 0 3 1.338 3 3V7c0-1.662-1.338-3-3-3H27c-1.662 0-3 1.338-3 3 0-1.662-1.338-3-3-3H7z"/></svg>