<svg xmlns="http://www.w3.org/2000/svg" width="48" height="48" version="1"><path style="opacity:.2" d="M6 5c-1.108 0-2 .892-2 2v36c0 1.108.892 2 2 2h22l16-16V7c0-1.108-.892-2-2-2z"/><path style="fill:#fecd38" d="M6 4c-1.108 0-2 .892-2 2v36c0 1.108.892 2 2 2h22l16-16V6c0-1.108-.892-2-2-2z"/><path style="fill:#ffe69b" d="M44 28H30a2 2 0 0 0-2 2v14z"/><path style="opacity:.2;fill:#fff" d="M6 4c-1.108 0-2 .892-2 2v1c0-1.108.892-2 2-2h36c1.108 0 2 .892 2 2V6c0-1.108-.892-2-2-2zm24 24a2 2 0 0 0-2 2v1a2 2 0 0 1 2-2h13l1-1z"/><rect style="opacity:.1" width="32" height="4" x="8" y="15" rx="2" ry="2"/><rect style="fill:#4f4f4f" width="32" height="4" x="8" y="14" rx="2" ry="2"/><rect style="opacity:.1" width="22" height="4" x="8" y="23" rx="2" ry="2"/><rect style="fill:#4f4f4f" width="22" height="4" x="8" y="22" rx="2" ry="2"/><rect style="opacity:.1" width="14" height="4" x="8" y="31" rx="2" ry="2"/><rect style="fill:#4f4f4f" width="14" height="4" x="8" y="30" rx="2" ry="2"/></svg>