<svg xmlns="http://www.w3.org/2000/svg" width="48" height="48" version="1"><path fill="#e4e4e4" d="M40 42V6c0-1.108-.892-2-2-2H10c-1.108 0-2 .892-2 2v36c0 1.108.892 2 2 2h28c1.108 0 2-.892 2-2z"/><path fill="#fff" opacity=".2" d="M10 4c-1.108 0-2 .892-2 2v1c0-1.108.892-2 2-2h28c1.108 0 2 .892 2 2V6c0-1.108-.892-2-2-2z"/><path opacity=".2" d="M8 42v1c0 1.108.892 2 2 2h28c1.108 0 2-.892 2-2v-1c0 1.108-.892 2-2 2H10c-1.108 0-2-.892-2-2z"/><circle opacity=".2" cx="36" cy="37" r="11"/><circle fill="#f34235" cx="36" cy="36" r="11"/><path fill="#fff" d="M30 39.327V42h2.673l6.75-6.75-2.672-2.674zm11.788-6.434a.708.708 0 0 0 0-1.01l-1.67-1.671a.708.708 0 0 0-1.011 0l-1.397 1.405 2.673 2.673z"/></svg>