<svg xmlns="http://www.w3.org/2000/svg" width="48" height="48" version="1"><g transform="translate(0 1)"><rect fill="#6573c3" width="40" height="40" x="-42.98" y="-43.98" rx="20" ry="20" transform="matrix(0 -1 -1 0 0 0)"/><path opacity=".1" d="M38.129 8.87 9.871 37.13a19.939 19.939 0 0 0 28.259 0 19.939 19.939 0 0 0 0-28.26z"/><path fill="#fff" opacity=".2" d="M24 3.018A19.938 19.938 0 0 0 4.018 23c0 .168-.004.333 0 .5C4.282 12.663 13.098 4.017 24 4.017s19.718 8.646 19.982 19.482c.004-.167 0-.332 0-.5A19.938 19.938 0 0 0 24 3.02z"/><path fill="#f2f2f2" d="m9.87 37.129 12.364-15.895 1.673 1.673 1.859 1.86z"/><path fill="#f34235" d="M38.129 8.87 22.234 21.235l3.532 3.532z"/><path fill="#fff" opacity=".2" d="M38.129 8.87 9.871 37.13a19.939 19.939 0 0 1 0-28.26 19.939 19.939 0 0 1 28.259 0z"/></g><path opacity=".2" d="M4.031 24.526c-.004.164-.013.327-.013.492C4.018 36.088 12.93 45 24 45s19.982-8.912 19.982-19.982c0-.165-.01-.328-.013-.492-.26 10.841-9.064 19.492-19.97 19.492S4.292 35.367 4.032 24.526z"/></svg>